<?xml version="1.0" encoding="utf-8" ?>
<svg baseProfile="full" height="500px" version="1.1" width="500px" xmlns="http://www.w3.org/2000/svg" xmlns:ev="http://www.w3.org/2001/xml-events" xmlns:xlink="http://www.w3.org/1999/xlink"><defs><clipPath id="border_clip"><rect height="500" width="500" x="0" y="0" /></clipPath></defs><polygon clip-path="url(#border_clip)" fill="#0000ff" fill-rule="evenodd" points="250.5,250.5 300.5,250.5 255.89969170510142,276.25 283.8996917051014,227.75257738807144 283.8996917051014,291.2525773880714 246.89969170510142,227.16669750802296 322.6769145362398,270.916697508023 218.6769145362398,270.91669750802293 325.631051903618,209.16669750802302 252.6310519036179,335.606406460551 252.63105190361804,164.106406460551 352.6310519036179,337.31148721743887 152.14617092752047,221.56148721743864 418.1461709275205,221.56148721743892 155.30746087894317,373.31148721743864 327.3074608789435,75.39874831559194 327.30746087894306,462.89874831559194 110.30746087894357,87.04372307314526 529.0307436087194,328.7937230731459 -6.96925639128068,328.79372307314503 505.28476994721524,33.043723073145884" stroke-width="0" /><polyline clip-path="url(#border_clip)" fill="none" points="250.5,250.5 300.5,250.5" stroke="#000000" stroke-linecap="round" stroke-width="0" /><polyline clip-path="url(#border_clip)" fill="none" points="300.5,250.5 255.89969170510142,276.25" stroke="#000d00" stroke-linecap="round" stroke-width="1" /><polyline clip-path="url(#border_clip)" fill="none" points="255.89969170510142,276.25 283.8996917051014,227.75257738807144" stroke="#001a00" stroke-linecap="round" stroke-width="2" /><polyline clip-path="url(#border_clip)" fill="none" points="283.8996917051014,227.75257738807144 283.8996917051014,291.2525773880714" stroke="#002600" stroke-linecap="round" stroke-width="3" /><polyline clip-path="url(#border_clip)" fill="none" points="283.8996917051014,291.2525773880714 246.89969170510142,227.16669750802296" stroke="#003300" stroke-linecap="round" stroke-width="4" /><polyline clip-path="url(#border_clip)" fill="none" points="246.89969170510142,227.16669750802296 322.6769145362398,270.916697508023" stroke="#004000" stroke-linecap="round" stroke-width="5" /><polyline clip-path="url(#border_clip)" fill="none" points="322.6769145362398,270.916697508023 218.6769145362398,270.91669750802293" stroke="#004d00" stroke-linecap="round" stroke-width="6" /><polyline clip-path="url(#border_clip)" fill="none" points="218.6769145362398,270.91669750802293 325.631051903618,209.16669750802302" stroke="#005900" stroke-linecap="round" stroke-width="7" /><polyline clip-path="url(#border_clip)" fill="none" points="325.631051903618,209.16669750802302 252.6310519036179,335.606406460551" stroke="#006600" stroke-linecap="round" stroke-width="8" /><polyline clip-path="url(#border_clip)" fill="none" points="252.6310519036179,335.606406460551 252.63105190361804,164.106406460551" stroke="#007300" stroke-linecap="round" stroke-width="9" /><polyline clip-path="url(#border_clip)" fill="none" points="252.63105190361804,164.106406460551 352.6310519036179,337.31148721743887" stroke="#008000" stroke-linecap="round" stroke-width="10" /><polyline clip-path="url(#border_clip)" fill="none" points="352.6310519036179,337.31148721743887 152.14617092752047,221.56148721743864" stroke="#008c00" stroke-linecap="round" stroke-width="11" /><polyline clip-path="url(#border_clip)" fill="none" points="152.14617092752047,221.56148721743864 418.1461709275205,221.56148721743892" stroke="#009900" stroke-linecap="round" stroke-width="12" /><polyline clip-path="url(#border_clip)" fill="none" points="418.1461709275205,221.56148721743892 155.30746087894317,373.31148721743864" stroke="#00a600" stroke-linecap="round" stroke-width="13" /><polyline clip-path="url(#border_clip)" fill="none" points="155.30746087894317,373.31148721743864 327.3074608789435,75.39874831559194" stroke="#00b300" stroke-linecap="round" stroke-width="14" /><polyline clip-path="url(#border_clip)" fill="none" points="327.3074608789435,75.39874831559194 327.30746087894306,462.89874831559194" stroke="#00bf00" stroke-linecap="round" stroke-width="15" /><polyline clip-path="url(#border_clip)" fill="none" points="327.30746087894306,462.89874831559194 110.30746087894357,87.04372307314526" stroke="#00cc00" stroke-linecap="round" stroke-width="16" /><polyline clip-path="url(#border_clip)" fill="none" points="110.30746087894357,87.04372307314526 529.0307436087194,328.7937230731459" stroke="#00d900" stroke-linecap="round" stroke-width="17" /><polyline clip-path="url(#border_clip)" fill="none" points="529.0307436087194,328.7937230731459 -6.96925639128068,328.79372307314503" stroke="#00e600" stroke-linecap="round" stroke-width="18" /><polyline clip-path="url(#border_clip)" fill="none" points="-6.96925639128068,328.79372307314503 505.28476994721524,33.043723073145884" stroke="#00f200" stroke-linecap="round" stroke-width="19" /></svg>